<svg width="14" height="18" viewBox="0 0 14 18" fill="none" xmlns="http://www.w3.org/2000/svg">
<path d="M7 0.75L13.75 3.75V8.25C13.75 12.4125 10.87 16.305 7 17.25C3.13 16.305 0.25 12.4125 0.25 8.25V3.75L7 0.75ZM7 2.385L1.75 4.725V8.415C1.75 11.655 4.1875 15 7 15.75C9.8125 15 12.25 11.655 12.25 8.415V4.725L7 2.385ZM10 10.5V11.6925C9.97 11.8575 9.835 11.97 9.6475 12H4.3525C4.165 11.97 4.03 11.8575 4 11.6925V10.5H10ZM10.75 6L10 9.75H4L3.25 6L5.2525 8.0025L7 6.255L8.7475 8.0025L10.75 6Z" fill="#999999"/>
</svg>
