<svg width="50" height="34" viewBox="0 0 50 34" fill="none" xmlns="http://www.w3.org/2000/svg">
<path d="M2.00391 0.118328C1.35875 0.320465 0.654936 0.897991 0.30303 1.51402L0 2.04342V17.011V31.9787L0.224829 32.3925C0.527859 32.9508 1.08504 33.4898 1.67155 33.769L2.15054 34H24.9756H47.8006L48.3773 33.7112C49.0616 33.3743 49.5406 32.8449 49.8045 32.1519C50 31.6418 50 31.4204 50 17.011C50 2.47657 50 2.38032 49.7947 1.86054C49.5503 1.21563 48.9052 0.522598 48.26 0.233833L47.8006 0.0220718L25.1222 0.00282288C5.80645 -0.00680161 2.37537 0.00282288 2.00391 0.118328ZM8.39687 5.01769C9.26686 5.37384 9.50147 6.63478 8.78788 7.18343L8.55328 7.36631L8.88563 7.56845C9.17889 7.75133 9.28641 7.91496 9.47214 8.48287C9.64809 9.01227 9.00293 10.0037 8.37732 10.177C8.18182 10.2251 7.30205 10.2732 6.43206 10.2732H4.83871V7.57807V4.88294H6.45161C7.60508 4.88294 8.16227 4.92144 8.39687 5.01769ZM14.1838 7.43369C14.741 8.81013 15.2297 10.0133 15.259 10.0999C15.3079 10.254 15.2395 10.2732 14.6823 10.2732H14.0567L13.8221 9.6668L13.5777 9.07002H12.522H11.4663L11.2414 9.64755L11.0264 10.2251L10.4301 10.254C10.0978 10.2732 9.82405 10.2443 9.82405 10.2058C9.82405 10.1577 10.1564 9.28178 10.567 8.25185C10.9677 7.22193 11.4369 6.038 11.6031 5.6241L11.8964 4.87331L12.5318 4.90219L13.1672 4.93107L14.1838 7.43369ZM18.0352 6.55777L19.0616 8.2326L19.0909 6.55777L19.1105 4.88294H19.6481H20.1857V7.57807V10.2732H19.6188H19.042L18.0254 8.63687L17.0088 7.00054L16.9795 8.63687L16.9599 10.2732H16.3734H15.7869V7.57807V4.88294H16.4027L17.0088 4.89256L18.0352 6.55777ZM22.5318 5.98987V7.0968L23.5679 5.98987L24.6041 4.88294H25.3861H26.1681L25.1808 5.90324C24.6237 6.47114 24.2033 6.99092 24.2326 7.0583C24.262 7.12567 24.7019 7.81871 25.2297 8.608C25.7478 9.38766 26.1975 10.0903 26.217 10.1481C26.2561 10.2443 26.0802 10.2732 25.5327 10.2732H24.7996L24.0958 9.07002C23.7048 8.40586 23.3627 7.86683 23.3236 7.86683C23.2845 7.86683 23.0987 8.03047 22.8934 8.22298C22.5513 8.57912 22.5415 8.608 22.5122 9.40691L22.4829 10.2251H21.8964H21.3099L21.2805 7.54919L21.261 4.88294H21.8964H22.5318V5.98987ZM44.4282 7.07755C44.6432 7.19305 44.8583 7.41444 44.9951 7.67433C45.2004 8.08822 45.2102 8.1941 45.2102 10.7064C45.2102 13.2186 45.2004 13.3245 44.9951 13.7384C44.5846 14.5277 44.6725 14.5084 39.8827 14.5084C35.8651 14.5084 35.6696 14.4988 35.3568 14.3159C35.1808 14.21 34.956 13.9886 34.8485 13.8154C34.6628 13.517 34.653 13.3245 34.653 10.7064C34.653 8.08822 34.6628 7.89571 34.8485 7.59732C34.956 7.42406 35.1808 7.20268 35.3568 7.0968C35.6696 6.91391 35.8651 6.90429 39.8827 6.90429C43.7634 6.90429 44.1153 6.91391 44.4282 7.07755ZM6.9697 27.8108L6.99902 29.1391H4.83871H2.68817V27.7916V26.444L4.81916 26.4633L6.94037 26.4921L6.9697 27.8108ZM17.1359 27.8108L17.1652 29.1391H13.7341H10.3128V27.8589C10.3128 27.1467 10.3421 26.5403 10.3812 26.5114C10.4203 26.4729 11.9453 26.4536 13.7732 26.4633L17.1066 26.4921L17.1359 27.8108ZM26.7155 27.8108L26.7449 29.1391H22.9228H19.1105V27.8589C19.1105 27.1467 19.1398 26.5403 19.1789 26.5114C19.218 26.4729 20.9189 26.4536 22.9619 26.4633L26.6862 26.4921L26.7155 27.8108ZM38.0547 27.8108L38.0841 29.1391H33.6266H29.1789V27.8589C29.1789 27.1467 29.2082 26.5403 29.2473 26.5114C29.2766 26.4729 31.2708 26.4536 33.6657 26.4633L38.0254 26.4921L38.0547 27.8108ZM47.263 27.7916V29.1391H44.0371H40.8113V27.8589C40.8113 27.1467 40.8407 26.5403 40.8798 26.5114C40.9091 26.4729 42.3656 26.444 44.1056 26.444H47.263V27.7916Z" fill="#40406B"/>
</svg>
