<svg width="18" height="19" viewBox="0 0 18 19" fill="none" xmlns="http://www.w3.org/2000/svg">
<path d="M14.6254 2.32812H11.8129C11.701 2.32812 11.5937 2.37257 11.5146 2.45169C11.4354 2.53081 11.391 2.63811 11.391 2.75C11.391 2.86189 11.4354 2.96919 11.5146 3.04831C11.5937 3.12743 11.701 3.17188 11.8129 3.17188H13.6072L11.4979 5.27703C11.0017 4.78532 10.3946 4.42006 9.72772 4.21201C9.06086 4.00396 8.35377 3.95921 7.666 4.08153C6.97824 4.20385 6.32994 4.48967 5.77571 4.9149C5.22149 5.34013 4.77757 5.89232 4.48134 6.52497C4.18512 7.15761 4.04527 7.85218 4.07357 8.55016C4.10187 9.24815 4.2975 9.92912 4.64397 10.5357C4.99044 11.1423 5.47761 11.6567 6.06444 12.0357C6.65127 12.4147 7.32059 12.647 8.016 12.7133V14.1406H6.18787C6.07599 14.1406 5.96868 14.1851 5.88956 14.2642C5.81045 14.3433 5.766 14.4506 5.766 14.5625C5.766 14.6744 5.81045 14.7817 5.88956 14.8608C5.96868 14.9399 6.07599 14.9844 6.18787 14.9844H8.016V16.8125C8.016 16.9244 8.06045 17.0317 8.13956 17.1108C8.21868 17.1899 8.32599 17.2344 8.43787 17.2344C8.54976 17.2344 8.65707 17.1899 8.73618 17.1108C8.8153 17.0317 8.85975 16.9244 8.85975 16.8125V14.9844H10.6879C10.7998 14.9844 10.9071 14.9399 10.9862 14.8608C11.0653 14.7817 11.1097 14.6744 11.1097 14.5625C11.1097 14.4506 11.0653 14.3433 10.9862 14.2642C10.9071 14.1851 10.7998 14.1406 10.6879 14.1406H8.85975V12.7133C9.61205 12.6397 10.3323 12.3718 10.9498 11.9358C11.5673 11.4998 12.0608 10.9107 12.3819 10.2264C12.7029 9.54211 12.8406 8.78607 12.7813 8.03251C12.7219 7.27895 12.4677 6.55376 12.0435 5.92812L14.2035 3.76812V5.5625C14.2035 5.67439 14.2479 5.78169 14.3271 5.86081C14.4062 5.93993 14.5135 5.98438 14.6254 5.98438C14.7373 5.98438 14.8446 5.93993 14.9237 5.86081C15.0028 5.78169 15.0472 5.67439 15.0472 5.5625V2.75C15.0472 2.63811 15.0028 2.53081 14.9237 2.45169C14.8446 2.37257 14.7373 2.32812 14.6254 2.32812ZM8.43787 11.8906C7.74255 11.8906 7.06284 11.6844 6.4847 11.2981C5.90656 10.9118 5.45595 10.3628 5.18986 9.72037C4.92377 9.07797 4.85415 8.3711 4.9898 7.68914C5.12545 7.00717 5.46028 6.38075 5.95195 5.88908C6.44362 5.39741 7.07004 5.06258 7.75201 4.92693C8.43397 4.79128 9.14085 4.8609 9.78325 5.12699C10.4256 5.39308 10.9747 5.84368 11.361 6.42182C11.7473 6.99997 11.9535 7.67968 11.9535 8.375C11.9524 9.30706 11.5816 10.2006 10.9226 10.8597C10.2635 11.5188 9.36993 11.8895 8.43787 11.8906Z" fill="#999999"/>
</svg>
