<svg id="Layer_1" data-name="Layer 1" xmlns="http://www.w3.org/2000/svg" viewBox="0 0 480 511.65"><defs><style>.cls-1{fill-rule:evenodd;}</style></defs><path class="cls-1" d="M83.28,237.33H375.8V155.47h-86c-9,0-21.62-4.88-27.56-10.83s-9.6-16.68-9.6-25.7V31.81H33.92a2.42,2.42,0,0,0-1.72.77,1.86,1.86,0,0,0-.77,1.73V477.54a2.84,2.84,0,0,0,.77,1.73,2.09,2.09,0,0,0,1.72.77H373.31c.76,0,.72-.39,1.1-.77.58-.39,1.39-1.15,1.39-1.73V431.08H83.28a31.6,31.6,0,0,1-31.47-31.47V268.79a31.55,31.55,0,0,1,31.47-31.46Zm27.82,45.93h31.28v38.3l32.82-38.3h41.65l-37,38.09,38.7,63.28H180L158.64,343,142.38,360v24.68H111.1V283.26Zm117.78,0h83.81v21.66H260.31v16.14h48.56v20.67H260.31v20h53.94v22.94H228.88V283.26Zm92,0H355.7l20.5,34.12,20.41-34.12H431.2l-39.35,58.92v42.45H360.42V342.18l-39.5-58.92Zm86.26-45.93h41.36A31.58,31.58,0,0,1,480,268.79V399.61a31.62,31.62,0,0,1-31.46,31.47H407.18v56.4A24.24,24.24,0,0,1,383,511.66H24.17A24.24,24.24,0,0,1,0,487.48V24.36A23.92,23.92,0,0,1,7.1,7.29,24.25,24.25,0,0,1,24.17.19H268.66A5.41,5.41,0,0,1,270.39,0a11.18,11.18,0,0,1,7.29,2.88h.39a3.34,3.34,0,0,1,.95.76l124.9,126.44a11.74,11.74,0,0,1,3.64,8.24,13.11,13.11,0,0,1-.38,2.69Zm-126-120.87V37.22l89.21,90.36H292.26a11.72,11.72,0,0,1-7.87-3.26,11.37,11.37,0,0,1-3.26-7.86Z"/></svg>